# xmcd CD database file
#
# Track frame offsets:
#	182
#	21965
#	43007
#	69215
#	88760
#	115552
#	135112
#	167482
#	196257
#
# Disc length: 3156 seconds
#
# Revision: 0
# Processed by: cddbd v1.5.1PL0 Copyright (c) Steve Scherf et al.
# Submitted via: CDex 1.51
#
DISCID=650c5209
DTITLE=Philippe Sellam - Rendez-vous
DYEAR=1990
DGENRE=Jazz
TTITLE0=Mobydick
TTITLE1=Rodeo à Borneo
TTITLE2=Derrière le paravent
TTITLE3=Maharajah
TTITLE4=Rendez-vous à Zagreb
TTITLE5=Be bop Bobby
TTITLE6=Passage secret
TTITLE7=Ramblas
TTITLE8=Cortège
EXTD=YEAR: 1990
EXTT0=
EXTT1=
EXTT2=
EXTT3=
EXTT4=
EXTT5=
EXTT6=
EXTT7=
EXTT8=
PLAYORDER=
